<svg xmlns="http://www.w3.org/2000/svg" width="59.621" height="53.659" viewBox="0 0 59.621 53.659">
  <path id="business-icon" d="M32.811,16.424V4.5H3V58.159H62.621V16.424ZM14.924,52.2H8.962V46.235h5.962Zm0-11.924H8.962V34.311h5.962Zm0-11.924H8.962V22.386h5.962Zm0-11.924H8.962V10.462h5.962ZM26.849,52.2H20.886V46.235h5.962Zm0-11.924H20.886V34.311h5.962Zm0-11.924H20.886V22.386h5.962Zm0-11.924H20.886V10.462h5.962ZM56.659,52.2H32.811V46.235h5.962V40.273H32.811V34.311h5.962V28.349H32.811V22.386H56.659ZM50.7,28.349H44.735v5.962H50.7Zm0,11.924H44.735v5.962H50.7Z" transform="translate(-3 -4.5)" fill="#fff"/>
</svg>
