<svg xmlns="http://www.w3.org/2000/svg" width="23.332" height="23.332" viewBox="0 0 23.332 23.332">
  <g id="instagram-icon" transform="translate(0)">
    <path id="Path_181" data-name="Path 181" d="M21.027,6.444a4.875,4.875,0,0,1,4.861,4.861v9.722a4.875,4.875,0,0,1-4.861,4.861H11.305a4.875,4.875,0,0,1-4.861-4.861V11.305a4.875,4.875,0,0,1,4.861-4.861h9.722m0-1.944H11.305A6.825,6.825,0,0,0,4.5,11.305v9.722a6.825,6.825,0,0,0,6.805,6.805h9.722a6.825,6.825,0,0,0,6.805-6.805V11.305A6.825,6.825,0,0,0,21.027,4.5Z" transform="translate(-4.5 -4.5)" fill="#fff"/>
    <path id="Path_182" data-name="Path 182" d="M25.083,11.917a1.458,1.458,0,1,1,1.458-1.458A1.455,1.455,0,0,1,25.083,11.917Z" transform="translate(-7.098 -5.111)" fill="#fff"/>
    <path id="Path_183" data-name="Path 183" d="M17.083,13.194a3.889,3.889,0,1,1-3.889,3.889,3.892,3.892,0,0,1,3.889-3.889m0-1.944a5.833,5.833,0,1,0,5.833,5.833,5.835,5.835,0,0,0-5.833-5.833Z" transform="translate(-5.417 -5.417)" fill="#fff"/>
  </g>
</svg>
