<svg xmlns="http://www.w3.org/2000/svg" width="295.653" height="57" viewBox="0 0 295.653 57">
  <g id="logo" transform="translate(-148 -148)">
    <text id="m_a_i_n_g_e_m" data-name="m a i n g e m" transform="translate(150 189)" fill="none" stroke="#fff" stroke-width="2" font-size="39" font-family="Nunito-Regular, Nunito"><tspan x="0" y="0">M A I N G E M</tspan></text>
    <g id="Layer_2" data-name="Layer 2" transform="matrix(-0.259, 0.966, -0.966, -0.259, 447.191, 162.488)">
      <g id="Layer_1" data-name="Layer 1" transform="translate(0 0)">
        <path id="Path_1" data-name="Path 1" d="M276.136,179.568c0,.078-.008.156-.012.24a.751.751,0,0,0-.04.715c.025.288.168.3.333.12a6.444,6.444,0,0,1,1.668-1.013.534.534,0,0,1,.883.346,2.253,2.253,0,0,0,1.089,1.349,1.688,1.688,0,0,1,.652,2.522,2.927,2.927,0,0,0-.36,1.587,1.854,1.854,0,0,1-.24.848l-.112-.228a4.735,4.735,0,0,1,.168-1.6,2.554,2.554,0,0,0-.894,2.094,5.768,5.768,0,0,0-.664,1.853c-.044.132.071.157.174.167-.108.2-.3.12-.461.141a2.43,2.43,0,0,1,.147-.747c.449-.8.082-1.4-.4-2a2.1,2.1,0,0,0-.859-1.081c-.055-.4-.332-.455-.649-.372-.376.1-.742.24-1.113.354-.217-.186-.147-.442-.12-.661a4.758,4.758,0,0,0,.1-1.16l.014-1.541c.229-.024.229-.195.232-.36a2.993,2.993,0,0,0,.24-1.561Zm.011,2.042a1.266,1.266,0,0,1-.251.841,2.874,2.874,0,0,0-.227,1.632c0,.161.112.334.24.255.374-.229.961-.12,1.087-.758a10.537,10.537,0,0,0,.36-2.411c-.012-.262-.068-.431-.37-.4-.4.042-.652.375-.989.544C275.8,181.408,275.957,181.572,276.147,181.61Zm1.929,3.477c.173.02.167.2.251.283.314.3.053.945.67,1.107a3.941,3.941,0,0,1,1.321-2.826c.663-.659.473-1.375-.229-2-.514-.459-1.295-.754-1.321-1.636-.006-.213-.205-.2-.36-.215-.263-.017-.36.112-.335.36-.179,1.115-.51,2.2-.709,3.31-.157.87-.114,1.134.712,1.613Z" transform="translate(-242.223 -157.944)" fill="#f8f9fa"/>
        <path id="Path_2" data-name="Path 2" d="M212.053,70.014h-.229v-.961c0-.131,0-.262-.008-.393.107-.287.413-.563.189-.884a7.253,7.253,0,0,1-.771-2.809c-.083-.36-.163-.728-.251-1.089a17.193,17.193,0,0,0-.587-2.513,8.607,8.607,0,0,0-.48-1.929,19.428,19.428,0,0,0-.825-2.528c-.264-.909-.758-1.468-1.407-1.3a6.93,6.93,0,0,1-1.365.12c-.31.022-.649.079-.787.442a22.2,22.2,0,0,0-.914,2.555l-.12.233q-.3.609-.6,1.21c-.025.186.058.429-.24.48h-.24l-.48-2.036c0-.2-.006-.394-.008-.591.04-.195-.145-.24-.231-.36-.072-.332.217-.746-.231-.99a.661.661,0,0,0-.007-.1V55.24a.642.642,0,0,1,.022-.12l.193-.12.7,4.2a.775.775,0,0,0,.031.177c.078.187,0,.519.269.526.2,0,.223-.3.292-.48q.59-1.535,1.166-3.076a1.553,1.553,0,0,1,1.682-1.031,3.739,3.739,0,0,0,1.134.007.9.9,0,0,1,1.185.685,57.317,57.317,0,0,1,1.852,6.449c.293,1.321.559,2.661.841,3.99a2.632,2.632,0,0,0,.411,1.176.485.485,0,0,1,.107.508C212.034,68.737,212.207,69.4,212.053,70.014Z" transform="translate(-178.141 -48.39)" fill="#f8f9fa"/>
        <path id="Path_3" data-name="Path 3" d="M77.271,268.936a4.426,4.426,0,0,1-.131-.454c-.066-.381-.271-.509-.638-.384a.672.672,0,0,1-.289.07c-1.581-.263-3,.4-4.468.767-1,.249-1.2.074-1.247-.942-.017-.4-.067-.8-.083-1.193-.026-.664-.252-.848-.918-.673a4.6,4.6,0,0,1-1.1.24.351.351,0,0,1,0-.079c.163-.209.4-.1.6-.138.265-.34.647-.2.985-.24l.589.014a9.609,9.609,0,0,1,.107,1.652c0,.215-.205.516.217.626a.719.719,0,0,0,.907-.267,24.156,24.156,0,0,1,1.632-1.788.169.169,0,0,0,.2.085.771.771,0,0,1,1.1.812.814.814,0,0,0,.035.329c.216.689.769.423,1.217.456l.691-.007.382.012a.151.151,0,0,1,.016.065A1.322,1.322,0,0,1,77.271,268.936Z" transform="translate(-60.175 -233.967)" fill="#f8f9fa"/>
        <path id="Path_4" data-name="Path 4" d="M167.344,236.572c.162-.022.353.056.461-.141a5.724,5.724,0,0,0,.847-2.023h0a.249.249,0,0,0,.12-.24l.24-.249.112.228a7.065,7.065,0,0,1-1.067,2.265,1.965,1.965,0,0,1-1.482.983c-.268,0-.372.207-.509.369-.321.383-.628.778-.951,1.159a1.023,1.023,0,0,1-1.284.371,2.48,2.48,0,0,0-2.351.16,1.876,1.876,0,0,1-2.132-.36.349.349,0,0,0-.614.167,1.94,1.94,0,0,1-1.348,1.219,2.245,2.245,0,0,1-1.846-.04c-.32-.161-.524.037-.643.262a3.655,3.655,0,0,1-2.187,1.562,1.029,1.029,0,0,1-1.027-.136,1.49,1.49,0,0,0-1.724-.05.783.783,0,0,1-.79.025c.2-.061.453.073.625-.139v-.111c.443-.36.978-.186,1.47-.255l.326.013a.721.721,0,0,0,.9.369,3.478,3.478,0,0,0,1.392-.584c.232-.092.432-.214.443-.5a.4.4,0,0,0,.262-.247l.53-.578.191-.007a6.664,6.664,0,0,0,.658.259c.4.113.806.223,1.146-.146a1.982,1.982,0,0,0,.841-.247c.413-.309.524-.82.81-1.214a1.4,1.4,0,0,1,.807.277,1.3,1.3,0,0,0,1.493.221c.473-.083,1-.029,1.336-.48l.234-.1,1.187.36a.983.983,0,0,0,1.236-.374c.37-.43.711-.886,1.064-1.331l.353-.24C166.991,237.269,167.146,236.878,167.344,236.572Z" transform="translate(-131.251 -205.819)" fill="#f8f9fa"/>
        <path id="Path_5" data-name="Path 5" d="M113.151,17.03c-.159-.269.046-.446.209-.549a1.717,1.717,0,0,0,.64-.972,43.108,43.108,0,0,0,1.528-4.795c.207-.861.474-.972,1.28-.614,1.11.495,1.106.494,1.177-.729a29.821,29.821,0,0,1,.6-5.525c.291-1.157.751-2.273,1.127-3.409.048-.144.1-.258.265-.277,0,.24-.006.48-.008.711-.055.019-.153.029-.16.06a24.83,24.83,0,0,0-.835,2.811c-.1.032-.2.094-.187.2.1.908-.412,1.756-.258,2.667-.444.292-.155.741-.24,1.111a28.976,28.976,0,0,0-.012,3.231.217.217,0,0,0-.22.24,4.033,4.033,0,0,1-1.616-.818c-.422-.263-.554-.038-.641.265-.12.417-.178.852-.263,1.278a2.172,2.172,0,0,0-.252.817l-.841,2.543a8.382,8.382,0,0,1-.955,1.672C113.381,17,113.2,16.756,113.151,17.03Z" transform="translate(-99.508 -0.137)" fill="#f8f9fa"/>
        <path id="Path_6" data-name="Path 6" d="M170.352.692c0-.24,0-.473.008-.711.256-.068.352.138.48.283a44.1,44.1,0,0,1,3.378,4.349c.406.616.142,1.312.205,1.969l-.193.12c-.313-.392-.029-.8-.032-1.2.011-.882-.527-1.5-1.682-1.94l-.36.011c-.114-.085-.175-.25-.36-.24-.165-.412-.453-.264-.7-.12a1.1,1.1,0,0,1-.507.24A16.152,16.152,0,0,1,170.352.692Z" transform="translate(-149.887 0.033)" fill="#f8f9fa"/>
        <path id="Path_7" data-name="Path 7" d="M81.47,190.015v-.12a8.393,8.393,0,0,1,1.7-1.137.793.793,0,0,0,.348-.311.84.84,0,0,1,.942-.465l.01.008v.465a1.344,1.344,0,0,0-.24.954c-.458.282-.144.73-.24,1.092v.36c.074.291-.167.48-.24.721a2.932,2.932,0,0,1-1.2-.36,2.89,2.89,0,0,0-.48-.527C81.8,190.5,81.91,190.015,81.47,190.015Z" transform="translate(-71.683 -165.387)" fill="#f8f9fa"/>
        <path id="Path_8" data-name="Path 8" d="M143.71,278.9c-.492.068-1.027-.1-1.47.255-.305-.382-.519-.173-.721.113-.02.019-.04.04-.058.06-.246-.153-.287-.437-.428-.657.034-.215.138-.464-.24-.48a.106.106,0,0,1-.019-.1,1.342,1.342,0,0,0-.2-1.041c.234.026.181-.18.24-.3.294.059.48-.135.67-.3.207-.184.392-.192.549.031C142.6,277.287,143.152,278.1,143.71,278.9Z" transform="translate(-123.684 -243.124)" fill="#f8f9fa"/>
        <path id="Path_9" data-name="Path 9" d="M8.206,257.166a.349.349,0,0,0,0,.079c-1.24.172-2.474.4-3.724.495-1.032.077-2.042.253-3.054.429-.442.076-.915.273-1.234-.25a.932.932,0,0,1,.527-1.507c.727-.269,1.48-.462,2.222-.689a.226.226,0,0,0,.223-.1l.109-.072c.007.056.013.113.02.169a.773.773,0,0,0,.352.36,4.23,4.23,0,0,1-1.833.234,1.981,1.981,0,0,0-1.61.938c-.13.2.181.813.306.715.335-.262.848-.043,1.1-.455l.705-.007c.3-.059.467.381.824.2a16.335,16.335,0,0,1,2.049-.418,5.087,5.087,0,0,1,1.825-.013h.24c.24-.032.508.1.721-.12Z" transform="translate(0.011 -224.851)" fill="#f8f9fa"/>
        <path id="Path_10" data-name="Path 10" d="M107.27,139.646c.054-.274.231-.026.336-.08l.007.014c-.073.286.24.48.221.705a13.441,13.441,0,0,0,.5,3.024c.022.168.031.317.24.344a2.423,2.423,0,0,0,.24,1.441v.24c.017.262-.09.563.24.721v1.2h-.114a10.66,10.66,0,0,1-1.561-.961h-.011c.145-.652.035-.763-.949-.951l-.01-.008c.114-.16.281-.1.434-.106a1.1,1.1,0,0,1,.93.913c.076.348.508.563.961.643C108.5,144.328,107.7,142.024,107.27,139.646Z" transform="translate(-93.627 -122.753)" fill="#f8f9fa"/>
        <path id="Path_11" data-name="Path 11" d="M47.47,214.411a1.825,1.825,0,0,1,.766-1.229,16.4,16.4,0,0,1,2.43-1.41c1.163-.506,1.171-.492.894-1.662.48,0,.175.655.592.705v.24c-.36.112-.438.46-.622.721-.166,0-.322.012-.341.229a1.366,1.366,0,0,0-.735.172c-.649.412-1.328.777-1.983,1.18a1.074,1.074,0,0,0-.639.949l-.014.12Z" transform="translate(-41.767 -184.869)" fill="#f8f9fa"/>
        <path id="Path_12" data-name="Path 12" d="M84.914,185.826c-.153,0-.319-.054-.434.106a.84.84,0,0,0-.942.465.793.793,0,0,1-.348.311,8.545,8.545,0,0,0-1.7,1.137.841.841,0,0,1,.384-.647,7.116,7.116,0,0,0,1.8-1.321A1.034,1.034,0,0,1,84.914,185.826Z" transform="translate(-71.701 -163.346)" fill="#f8f9fa"/>
        <path id="Path_13" data-name="Path 13" d="M30.647,245.92l.347.01-.109.24a1.491,1.491,0,0,1-1.184.492,2.114,2.114,0,0,0-1.333.347L28.35,247c.031-.412.4-.372.652-.48C29.534,246.265,30.2,246.392,30.647,245.92Z" transform="translate(-24.943 -216.378)" fill="#f8f9fa"/>
        <path id="Path_14" data-name="Path 14" d="M81.685,206.312c-.417-.05-.12-.7-.592-.705.094-.207-.169-.411,0-.617.44,0,.334.492.6.673a3.072,3.072,0,0,1,.48.527Z" transform="translate(-71.3 -180.364)" fill="#f8f9fa"/>
        <path id="Path_15" data-name="Path 15" d="M142.465,291.91c.372.017.268.265.24.48A.439.439,0,0,1,142.465,291.91Z" transform="translate(-125.35 -256.844)" fill="#f8f9fa"/>
        <path id="Path_16" data-name="Path 16" d="M148.765,300.86c-.172.213-.42.078-.625.139-.05-.025-.1-.05-.15-.077.018-.02.037-.041.058-.06Z" transform="translate(-130.213 -264.719)" fill="#f8f9fa"/>
        <path id="Path_17" data-name="Path 17" d="M281.379,182.675a.749.749,0,0,1,.04-.715A1.709,1.709,0,0,1,281.379,182.675Z" transform="translate(-247.517 -160.1)" fill="#f8f9fa"/>
        <path id="Path_18" data-name="Path 18" d="M24.813,256.15a.226.226,0,0,1-.223.1Z" transform="translate(-21.635 -225.379)" fill="#f8f9fa"/>
        <path id="Path_19" data-name="Path 19" d="M27.38,255.126c-.007-.056-.013-.113-.02-.169l.12-.086.017.014a.255.255,0,0,1-.117.241Z" transform="translate(-24.072 -224.253)" fill="#f8f9fa"/>
        <path id="Path_20" data-name="Path 20" d="M296.565,182.258c-.028-.25.072-.378.335-.36.16.011.36,0,.36.215.022.882.8,1.177,1.321,1.636.7.626.892,1.342.229,2a3.966,3.966,0,0,0-1.321,2.826c-.617-.162-.36-.8-.67-1.107-.084-.082-.078-.263-.251-.283a2.61,2.61,0,0,1,.016-2.282,6.121,6.121,0,0,0,.492-1.649C297.114,182.832,297.106,182.4,296.565,182.258Z" transform="translate(-260.718 -160.044)" fill="#f8f9fa"/>
        <path id="Path_21" data-name="Path 21" d="M260.428,189.842l-.014,1.542a1.449,1.449,0,0,0-.233.961,13.618,13.618,0,0,1-.12,1.891c-.016.155.016.351-.2.374-.4.043-.721.325-1.139.3-.324,0-.507-.112-.48-.48.028-.328.013-.658.017-.987a1.163,1.163,0,0,0,.189-2.049c-.056.12-.12.24-.172.36a3.821,3.821,0,0,1,.307-1.922c.157-.334.36-.585.789-.48.179.042.281-.085.4-.191.318-.276.554-.192.627.219A3.426,3.426,0,0,1,260.428,189.842Z" transform="translate(-227.22 -166.296)" fill="#f8f9fa"/>
        <path id="Path_22" data-name="Path 22" d="M223.643,160.661a3.82,3.82,0,0,0-.307,1.922l-.032.24a16.524,16.524,0,0,0-.209,2.621c.02.5.269.627.685.3.412.023.741-.259,1.139-.3.215-.023.184-.219.2-.374a13.623,13.623,0,0,0,.12-1.891,1.428,1.428,0,0,1,.233-.961,4.753,4.753,0,0,1-.1,1.159c-.025.219-.1.48.12.661v.961l-.007.353c-.167.285.031.323.24.353h0a3.517,3.517,0,0,1,1.631,2.275,2.077,2.077,0,0,0,.171.378l-.353.24h-.032a4.3,4.3,0,0,0-.644-1.814c-.2-.371-.743-.557-1.133-.826a.787.787,0,0,0-.79-.066c-.5.13-.987.289-1.48.437-.007-.172,0-.354-.24-.37a4.054,4.054,0,0,1,.068-.768c.1-.36.04-.561-.446-.47s-.961.644-1.321.331c-.312-.271-.31-.907-.446-1.381-.011-.038-.018-.078-.028-.12l.016-.353,1.441-.579c.939-.064.944-.071.961-.995,0-.156.01-.312.014-.468l.094-.24a.878.878,0,0,0-.348-.873c-.541-.489-1.038-1.026-1.552-1.543a6.878,6.878,0,0,0-1.213-1.328l-.112-.108-.251-.24h0a.413.413,0,0,0-.24-.24c-.309-.16-.48-.669-.961-.384v-.335h0l.384-.01a5.155,5.155,0,0,1,1.649,1.336c.782.823,1.545,1.662,2.329,2.482.139.147.36.387.556.193.36-.347.877-.6.871-1.217.627-.315,1.011-.946,1.643-1.254,0,.131.006.262.008.393a1.34,1.34,0,0,0-.721.707,9.075,9.075,0,0,0-1.552,1.624C223.558,160.292,223.482,160.467,223.643,160.661Zm-.587,2.6c.036-.384-.1-.49-.419-.392a11.721,11.721,0,0,1-1.143.321c-.386.08-.5.288-.413.683.22.961.214.961,1.143.629a2.281,2.281,0,0,1,.5-.172c.173-.018.257-.062.247-.24A2.655,2.655,0,0,1,223.056,163.259Z" transform="translate(-192.28 -137.126)" fill="#f8f9fa"/>
        <path id="Path_23" data-name="Path 23" d="M280.286,235.3a2.079,2.079,0,0,1-.165-.384,3.517,3.517,0,0,0-1.622-2.271c.458,0,.945-.114,1.145.515.073.232.354.24.572.18a.553.553,0,0,0,.423-.446c.035-.221.035-.441-.273-.494a.21.21,0,0,1-.161-.317c.079-.2.24-.179.39-.089.095.059.157.193.293.077.48.593.853,1.2.4,2a2.393,2.393,0,0,0-.147.747C280.942,235.13,280.787,235.521,280.286,235.3Z" transform="translate(-245.047 -204.071)" fill="#f8f9fa"/>
        <path id="Path_24" data-name="Path 24" d="M279.654,189.977c.3-.029.36.141.37.4a10.038,10.038,0,0,1-.36,2.411c-.12.634-.714.528-1.087.758-.13.079-.246-.094-.24-.255a2.874,2.874,0,0,1,.227-1.632,1.266,1.266,0,0,0,.251-.841C279.128,190.57,279.636,190.515,279.654,189.977Z" transform="translate(-244.894 -167.151)" fill="#f8f9fa"/>
        <path id="Path_25" data-name="Path 25" d="M279.079,225.144c-.136.12-.2-.018-.293-.077-.146-.09-.311-.111-.39.089a.21.21,0,0,0,.161.317c.307.053.307.273.273.494a.553.553,0,0,1-.423.446c-.217.062-.5.052-.572-.18-.2-.629-.687-.515-1.145-.515h0c.018-.184-.16-.24-.24-.353l.007-.353c.246-.061.35-.294.529-.436a1.6,1.6,0,0,1,1.234-.509A2.1,2.1,0,0,1,279.079,225.144Z" transform="translate(-243.243 -197.139)" fill="#f8f9fa"/>
        <path id="Path_26" data-name="Path 26" d="M292.7,184.91c.542.138.547.574.514.991a6.123,6.123,0,0,1-.492,1.649,2.611,2.611,0,0,0-.016,2.282c-.826-.48-.87-.744-.721-1.616C292.193,187.107,292.525,186.025,292.7,184.91Z" transform="translate(-256.857 -162.696)" fill="#f8f9fa"/>
        <path id="Path_27" data-name="Path 27" d="M260.43,180.053c-.161-.193-.085-.369.041-.539a9.076,9.076,0,0,1,1.552-1.624,6.639,6.639,0,0,1,.48,1.815c0,.168,0,.339-.232.36a3.423,3.423,0,0,0-.025-.472c-.073-.411-.309-.495-.627-.219-.12.106-.225.233-.4.191C260.791,179.465,260.587,179.719,260.43,180.053Z" transform="translate(-229.067 -156.519)" fill="#f8f9fa"/>
        <path id="Path_28" data-name="Path 28" d="M274.871,174.522a6.643,6.643,0,0,0-.48-1.815,1.34,1.34,0,0,1,.721-.707v.961A2.984,2.984,0,0,1,274.871,174.522Z" transform="translate(-241.431 -151.337)" fill="#f8f9fa"/>
        <path id="Path_29" data-name="Path 29" d="M309.061,222.135l-.24.249a.24.24,0,0,0-.12.24h-.36a2.554,2.554,0,0,1,.894-2.094A4.737,4.737,0,0,0,309.061,222.135Z" transform="translate(-271.291 -194.038)" fill="#f8f9fa"/>
        <path id="Path_30" data-name="Path 30" d="M278.282,221.192a1.606,1.606,0,0,0-1.234.509c-.179.142-.282.375-.529.436v-.961c.371-.12.737-.255,1.113-.354C277.951,220.737,278.227,220.788,278.282,221.192Z" transform="translate(-243.305 -194.264)" fill="#f8f9fa"/>
        <path id="Path_31" data-name="Path 31" d="M303.489,238h.36a5.724,5.724,0,0,1-.847,2.023c-.1-.01-.219-.035-.174-.167A5.592,5.592,0,0,1,303.489,238Z" transform="translate(-266.445 -209.409)" fill="#f8f9fa"/>
        <path id="Path_32" data-name="Path 32" d="M281.466,190c-.018.539-.521.595-.841.841-.19-.035-.342-.2-.153-.294C280.82,190.374,281.06,190.041,281.466,190Z" transform="translate(-246.706 -167.175)" fill="#f8f9fa"/>
        <path id="Path_33" data-name="Path 33" d="M239.932,110.27c-.632.307-1.016.939-1.643,1.253a.293.293,0,0,0-.265-.144,7.554,7.554,0,0,0-1.1-2.408c-.386-.835-.971-1.561-1.3-2.429-.394-1.031-.8-2.058-1.2-3.087.344-.024.6.214.892.317a.437.437,0,0,0,.456-.02c.183-.173-.062-.262-.111-.394a4.535,4.535,0,0,1-.455-1.058,1.368,1.368,0,0,1,.667.145c.207.056.369.294.59.054.24.025.586-.107.674.213s.36.34.526.512a5.616,5.616,0,0,0-.223,1.523c-.074,1.032.055,1.155,1.053,1.492.289.1.653.028.86.339a7.254,7.254,0,0,0,.771,2.809C240.345,109.7,240.039,109.983,239.932,110.27Z" transform="translate(-206.262 -89.999)" fill="#f8f9fa"/>
        <path id="Path_34" data-name="Path 34" d="M174.6,67.42l.48,2.036c-1.071,1.887-2.042,3.824-3,5.765h-.12c-.12-.12.025-.24-.016-.36l-.1-.12a8.555,8.555,0,0,0-.067-.89c-.165-1.1-.285-2.2-.42-3.306-.025-.7-.729-.8-1.081-1.2-.065-.569.2-1.116.112-1.682,0-.12,0-.24.008-.36.18-.154.09-.36.12-.553a13.091,13.091,0,0,1,.232-1.73c.625,1.007,1.25,2.012,1.869,3.021a.369.369,0,0,1,.052.286c-.24.527.144.919.327,1.321.111.24.2.768.534.659.24-.078.12-.563.04-.867-.065-.232-.085-.473.185-.548.411-.113.372-.413.36-.711C174.108,67.819,174.142,67.491,174.6,67.42Z" transform="translate(-149.804 -57.206)" fill="#f8f9fa"/>
        <path id="Path_35" data-name="Path 35" d="M225.315,65.879c-.171-.172-.441-.2-.526-.512s-.43-.187-.674-.213a4.515,4.515,0,0,1-2.064-2.253c-.079-.22-.306-.12-.47-.154-.36-.082-.586.338-.945.246h-.246a22.458,22.458,0,0,1,.914-2.555.789.789,0,0,1,.787-.442,7.021,7.021,0,0,0,1.364-.12c.649-.166,1.142.393,1.407,1.3a2.356,2.356,0,0,0-2.056.969c-.186.221-.181.446.048.547.441.192.623.591.895.928a1.827,1.827,0,0,0,.679.573c.611.269.874-.251,1.264-.495a8.607,8.607,0,0,1,.48,1.929C225.967,66,225.609,65.833,225.315,65.879Z" transform="translate(-193.917 -52.656)" fill="#f8f9fa"/>
        <path id="Path_36" data-name="Path 36" d="M219.519,86h.246a7.589,7.589,0,0,1,1.034,1.625c.305.453.058,1.052.4,1.492.4,1.029.807,2.056,1.2,3.087.332.866.916,1.594,1.3,2.429a7.554,7.554,0,0,1,1.1,2.408,3.732,3.732,0,0,1-1.931-1.964c-.453-.778-.885-1.569-1.338-2.345a19.463,19.463,0,0,1-1.561-3.141c-.094-.256-.083-.721-.565-.713q0-1.321-.012-2.65Z" transform="translate(-193.046 -75.666)" fill="#f8f9fa"/>
        <path id="Path_37" data-name="Path 37" d="M178.217,62.994c-.454.066-.489.394-.48.758.008.3.047.6-.36.711-.27.074-.25.316-.185.548.085.3.2.789-.04.867-.339.108-.424-.413-.534-.659-.183-.406-.566-.8-.327-1.321a.369.369,0,0,0-.052-.286c-.619-1.009-1.244-2.014-1.869-3.021,0-.2.006-.4.008-.6.413.043.629.525,1.081.48a1.561,1.561,0,0,0,1.087.841h0a4.77,4.77,0,0,0,1.668,1.1C178.211,62.6,178.215,62.8,178.217,62.994Z" transform="translate(-153.425 -52.78)" fill="#f8f9fa"/>
        <path id="Path_38" data-name="Path 38" d="M194.867,98.48c.3-.047.217-.289.24-.48.256.032.233.225.24.406.088,2.185-.222,4.384.24,6.556h0a.675.675,0,0,0-.346.728,2.67,2.67,0,0,1-.36.961l-.144-.007c0-1.1.5-2.193.052-3.3-.026-.067.047-.184.09-.269.228-.434-.058-.71-.324-.961-.085-.082-.24-.08-.307-.24-.25-.543-.48-.382-.739.019a1.017,1.017,0,0,0-.205.667l-.12.12a.21.21,0,0,0-.229.24c0,.038-.01.078-.012.12a.213.213,0,0,0-.228.24v.007l-.24-.007a1.022,1.022,0,0,1,.087-.456C193.331,101.384,194.1,99.93,194.867,98.48Z" transform="translate(-169.353 -86.225)" fill="#f8f9fa"/>
        <path id="Path_39" data-name="Path 39" d="M242.394,73.362c-.389.24-.652.764-1.264.495a1.827,1.827,0,0,1-.675-.571c-.271-.338-.454-.736-.895-.928-.229-.1-.24-.326-.048-.547a2.371,2.371,0,0,1,2.056-.978A19.419,19.419,0,0,1,242.394,73.362Z" transform="translate(-210.624 -62.316)" fill="#f8f9fa"/>
        <path id="Path_40" data-name="Path 40" d="M181.676,102c-.77,1.451-1.536,2.9-2.315,4.352a1.022,1.022,0,0,0-.086.456v.36a2.385,2.385,0,0,0-.721,2.282c.174,1.107.36,2.215.518,3.326.052.369.283.754-.023,1.121a1.859,1.859,0,0,1-.12-.334q-.371-2.176-.729-4.353c-.014-.338-.03-.671-.078-1.009-.233-1.622-.431-3.243-.641-4.872.076-.078.15-.157.226-.24.136,1.1.256,2.208.42,3.306a8.564,8.564,0,0,1,.067.89l.1.12c.041.12-.1.24.016.36.037.066.077.071.12,0,.961-1.946,1.933-3.883,3-5.765Z" transform="translate(-156.161 -89.745)" fill="#f8f9fa"/>
        <path id="Path_41" data-name="Path 41" d="M259.625,108.239c.294-.047.652.12.852-.249a17.484,17.484,0,0,1,.587,2.513c.088.36.168.727.251,1.089-.207-.311-.571-.24-.86-.339-1-.336-1.128-.46-1.053-1.492A5.617,5.617,0,0,1,259.625,108.239Z" transform="translate(-228.228 -95.015)" fill="#f8f9fa"/>
        <path id="Path_42" data-name="Path 42" d="M180.409,27.993c.18-.014.24.15.36.24A2.242,2.242,0,0,0,181,30.009a1.624,1.624,0,0,0,.738.656.65.65,0,0,1,.471.562c.032.53.323.378.613.252V32.81c-.167-.017-.18-.163-.261-.267-.315-.4-.48-1.019-1.18-.944a2.73,2.73,0,0,1-1.2-1.441c.4-.165.2-.413.12-.674A1.381,1.381,0,0,1,180.409,27.993Z" transform="translate(-158.495 -24.626)" fill="#f8f9fa"/>
        <path id="Path_43" data-name="Path 43" d="M214.91,96.124c-.462-2.172-.153-4.371-.24-6.556-.007-.181.016-.374-.24-.406l.593-1.212q0,1.321.012,2.65c-.09,1.672.091,3.339.112,5.009a.853.853,0,0,0,.148.506Z" transform="translate(-188.673 -77.382)" fill="#f8f9fa"/>
        <path id="Path_44" data-name="Path 44" d="M186.891,33.146c-.289.12-.58.277-.613-.252a.65.65,0,0,0-.471-.562,1.6,1.6,0,0,1-.737-.656,2.241,2.241,0,0,1-.227-1.775l.36-.011c-.1.411.36.6.374.969-.292.525.24.685.44.992.229.352.428-.012.64-.024h.227c0,.4-.281.808.032,1.2A.645.645,0,0,0,186.891,33.146Z" transform="translate(-162.574 -26.296)" fill="#f8f9fa"/>
        <path id="Path_45" data-name="Path 45" d="M189.211,57.955c.7-.074.865.541,1.18.944.08.1.094.25.261.267a.67.67,0,0,1,.007.1c-.066.215.12.535-.252.623-.346-.054-.563-.435-.955-.375h0c0-.079-.006-.159-.008-.24.084-.418-.184-.721-.351-1.056C189,58.035,189.038,57.987,189.211,57.955Z" transform="translate(-166.335 -50.984)" fill="#f8f9fa"/>
        <path id="Path_46" data-name="Path 46" d="M192.44,70.953c.392-.06.609.321.961.375l.48.366c.085.113.27.162.231.36A4.879,4.879,0,0,1,192.44,70.953Z" transform="translate(-169.324 -62.421)" fill="#f8f9fa"/>
        <path id="Path_47" data-name="Path 47" d="M200.89,69.9l-.48-.366c.377-.089.185-.408.251-.623C201.108,69.154,200.818,69.568,200.89,69.9Z" transform="translate(-176.337 -60.629)" fill="#f8f9fa"/>
        <path id="Path_48" data-name="Path 48" d="M53.885,198.437l.48-.12a3.231,3.231,0,0,0,1.2.36c.187.211.453.1.677.157.735.178.754.151.756-.633a7.553,7.553,0,0,0,.247-2.162,10.559,10.559,0,0,0,1.561.961c.3.961.584,1.922.909,2.874a1.138,1.138,0,0,1-.068,1.212,1.957,1.957,0,0,1-.538.24c-.3.055-.721-.223-.888.226a2.6,2.6,0,0,0-.255,1.034c.011.195-.1.488.079.563a6.064,6.064,0,0,0,2.364.817c.253,0,.24-.129.24-.346.016-.861-.335-1.674-.3-2.534h.381c-.207.575.163,1.107.12,1.671.04.331.09.662.12.995.028.383.2.571.6.565a4.263,4.263,0,0,0,1.441-.231c.13-.018.24-.074.24-.219a10.23,10.23,0,0,0-.079-2.073c0-.24-.084-.491.085-.712l.522-.022.575.512a3.641,3.641,0,0,0,1.118,1.2c-.3-.855-.545-1.576-.79-2.3l-.587-2.3c-.013-.24-.028-.472-.041-.709h.145l.973,3.6c.035.133.064.27.108.4.333.977.333.961,1.349.934.377-.01.48-.153.47-.506,0-.2-.183-.508.214-.574.014.153.028.305.042.458.011.533.233.828.813.709h.835l.709.108c.006.088.012.175.017.263-.488.05-.961-.209-1.45-.088h-.467l-.841-.031h-.6c-.646-.046-.727.467-.816.895-.126.616-.174,1.249-.256,1.875.018.323-.4.822.346.849h0a.24.24,0,0,0,.24.24h0a1.189,1.189,0,0,0,.961.712.4.4,0,0,1-.262.247c-.195,0-.293-.178-.453-.24a23.84,23.84,0,0,0-3.281-2.468c-.539-.315-.878-.36-1.288.073-.286-.059-.376-.335-.545-.515-.211-.225-.416-.143-.647-.1-.293.056-.227.276-.24.464a8.037,8.037,0,0,0,.24,1.576L60,206.349l-.113-1.781c-.007-.12-.037-.259-.16-.3a7.367,7.367,0,0,0-2.112-.781h-.24c.083-.306.159-.615.25-.918.3-.986.3-.985-.71-.888-.205.02-.48-.066-.492.275,0,.368-.36.76.082,1.1.15.12.368.184.407.414l-.145.018c-.261-.018-.419-.321-.711-.253,0-.459,0-.916.008-1.375a.657.657,0,0,0-.232-.583,5.713,5.713,0,0,0-1.829-1.1c-.38-.12-1.625.713-1.509,1.073.221.677.165,1.45.774,2.019.309.288.841.442.868.991a.257.257,0,0,1-.24.177l-.589-.014c.077-.369-.348-.48-.4-.822-.133-.918-.372-1.034-1.255-.762-.077.023-.153.049-.231.066-.671.145-1.246.638-1.981.563l.36-.24h0a.628.628,0,0,0,.48-.233.75.75,0,0,0,.491-.24,4.755,4.755,0,0,0,1.395-.306c.232-.049.36-.25.19-.448s0-.772-.432-.634a3.611,3.611,0,0,0-1.643.665,2.487,2.487,0,0,1-.841.24l.109-.24.014-.12c.894-.126,1.6-.736,2.5-.918.394-.08.713-.6,1.031-.961.162-.179-.016-.322-.173-.426.019-.217.175-.229.341-.229.062.3.36.3.559.381a6.039,6.039,0,0,1,1.942,1.081,1.907,1.907,0,0,0,1.548.461c.508-.052.592-.183.318-.629-.24-.388-.5-.762-.728-1.153a.638.638,0,0,0-.407-.327c-.868-.189-1.739-.36-2.61-.539Zm10.337,5.525c.93-.014,1.183-.227.927-.831a6.3,6.3,0,0,0-1.646-1.9v2.486a.24.24,0,0,0,.213.24Zm-.494.753c-.038.465.4.542.649.772.15.141.333.375.543.281s.12-.392.131-.6c.059-1.07.056-1.059-1.02-.862C63.762,204.354,63.711,204.49,63.729,204.716Z" transform="translate(-43.5 -172.489)" fill="#f8f9fa"/>
        <path id="Path_49" data-name="Path 49" d="M7.421,252.363c.735.074,1.309-.418,1.981-.563.078-.017.154-.043.231-.066.883-.273,1.122-.156,1.255.762.049.345.48.453.4.822-.338.041-.721-.1-.985.24-.022-.054-.032-.148-.067-.157a2.729,2.729,0,0,0-1.784.149c-.208.084.05.162.061.252a5.086,5.086,0,0,0-1.825.013,16.341,16.341,0,0,0-2.049.418c-.36.178-.52-.262-.823-.2.12-.217.231-.432.547-.268a.247.247,0,0,0,.36-.12.2.2,0,0,0,0-.165c-.09-.162-.231-.071-.36-.076-.388-.013-.822.345-1.166-.157-.067-.1-.309.044-.39.186a.224.224,0,0,0,.1.351.305.305,0,0,1,.221.252c-.251.412-.764.193-1.1.455-.12.1-.436-.516-.306-.715a1.981,1.981,0,0,1,1.61-.938,4.23,4.23,0,0,0,1.833-.234,1.865,1.865,0,0,0,2.162-.24Z" transform="translate(-1.481 -221.379)" fill="#f8f9fa"/>
        <path id="Path_50" data-name="Path 50" d="M86.51,257.034a.257.257,0,0,0,.234-.185,2.06,2.06,0,0,0,1.922-1.029c.292-.067.45.24.711.253.6.4.054.789,0,1.183-.55.592-1.143,1.15-1.632,1.788a.723.723,0,0,1-.907.267c-.423-.109-.214-.411-.217-.626A9.61,9.61,0,0,0,86.51,257.034Z" transform="translate(-76.118 -225.08)" fill="#f8f9fa"/>
        <path id="Path_51" data-name="Path 51" d="M116.907,257.94a7.228,7.228,0,0,1,2.112.781c.12.042.153.177.16.3q.058.89.113,1.781l-.691.007c-.392-.679-.778-1.36-1.178-2.032a.473.473,0,0,0-.274-.21C116.706,258.485,116.832,258.208,116.907,257.94Z" transform="translate(-102.797 -226.954)" fill="#f8f9fa"/>
        <path id="Path_52" data-name="Path 52" d="M111.2,257.843c-.074.268-.2.545.24.628a.473.473,0,0,1,.274.21c.4.673.787,1.354,1.178,2.032-.448-.034-1,.233-1.217-.456a.815.815,0,0,1-.035-.329.772.772,0,0,0-1.1-.812.169.169,0,0,1-.2-.085c.055-.394.6-.788,0-1.183l.145-.018.464.012Z" transform="translate(-97.085 -226.857)" fill="#f8f9fa"/>
        <path id="Path_53" data-name="Path 53" d="M138.712,266.553a8.412,8.412,0,0,1-.24-1.576c.01-.187-.056-.407.24-.464.232-.046.436-.127.647.1.169.18.259.456.545.515a.562.562,0,0,0,.24.572c-.465.072-1,.016-1.18.625-.056.12,0,.323-.24.3A.153.153,0,0,0,138.712,266.553Z" transform="translate(-121.836 -232.691)" fill="#f8f9fa"/>
        <path id="Path_54" data-name="Path 54" d="M57.441,266.327c-.011-.09-.269-.168-.061-.252a2.729,2.729,0,0,1,1.787-.148c.035.01.046.1.067.157-.2.034-.438-.071-.6.138H58.4c-.24.029-.508-.1-.721.12Z" transform="translate(-50.415 -233.906)" fill="#f8f9fa"/>
        <path id="Path_55" data-name="Path 55" d="M218.307,236.192c0-.088-.011-.175-.017-.262.13-.6.149-1.247.743-1.634.388-.046.632-.495,1.1-.36.83.249,1.668.467,2.5.7.24.016.24.2.24.369-.055.456-.387.835-.366,1.312-.072.4-.437.8-.031,1.216a.934.934,0,0,0,.6.595l.384.494-.234.1c-.186-.144-.345-.628-.574-.323s-.585.47-.762.8a1.3,1.3,0,0,1-1.493-.221,1.4,1.4,0,0,0-.807-.277c.018-.313.563-.677-.09-.926l-.216-.032c-.091-.155-.181-.311-.271-.466Zm1.69-1.91c-.407-.017-1.052.653-1.176,1.261a4.633,4.633,0,0,0,.8,1.728,1.133,1.133,0,0,1,.223.076.765.765,0,0,1,.387.631c0,.16-.306.48.145.48.334,0,.332-.282.328-.528a1.357,1.357,0,0,0-.031-.531c-.163-.36.018-.573.261-.766a3.459,3.459,0,0,1,1.049-.663c.378-.12.47-.48.5-.816.037-.369-.347-.36-.554-.424C221.311,234.548,220.667,234.433,220,234.282Z" transform="translate(-192.069 -205.812)" fill="#f8f9fa"/>
        <path id="Path_56" data-name="Path 56" d="M150.589,268.257a.562.562,0,0,1-.24-.572c.41-.43.748-.388,1.288-.073a23.7,23.7,0,0,1,3.281,2.468c0,.249.006.5.01.745a3.405,3.405,0,0,1-1.392.584.719.719,0,0,1-.9-.369c.061-.578-.36-.894-.691-1.252A8.16,8.16,0,0,0,150.589,268.257Z" transform="translate(-132.28 -235.251)" fill="#f8f9fa"/>
        <path id="Path_57" data-name="Path 57" d="M181.48,254.619c.082-.626.13-1.259.256-1.875.089-.428.169-.94.816-.895a5.4,5.4,0,0,0-.628,1.291c-.353.912-.092,1.428.848,1.612.316.061.665.139.764.544.043.183.21.15.344.168l-.12.368-.191.007a4.676,4.676,0,0,0-1.5-.131h0a.211.211,0,0,0-.24-.24h0C181.724,255.18,182.113,254.69,181.48,254.619Z" transform="translate(-159.681 -221.592)" fill="#f8f9fa"/>
        <path id="Path_58" data-name="Path 58" d="M273.58,257.1c-.353.444-.694.9-1.064,1.331a.98.98,0,0,1-1.236.374c.36-.2.742-.37.634-.915-.041-.2.2-.268.33-.381.161-.138.378-.281.13-.528-.044-.223.113-.346.24-.48.211-.024.46-.2.52.216a.537.537,0,0,0,.412.387Z" transform="translate(-238.694 -225.638)" fill="#f8f9fa"/>
        <path id="Path_59" data-name="Path 59" d="M260.874,260.93c.249.247.031.39-.13.529-.133.113-.371.178-.33.381.108.545-.276.713-.634.915l-1.187-.36-.383-.495a3.566,3.566,0,0,1,.824.087c.292.023.7.186.841-.217C260.055,261.269,260.492,261.149,260.874,260.93Z" transform="translate(-227.194 -229.585)" fill="#f8f9fa"/>
        <path id="Path_60" data-name="Path 60" d="M143.744,274.76a8,8,0,0,1,1.351,1.531c.329.36.752.674.691,1.252l-.326-.013c-.557-.8-1.112-1.613-1.682-2.414-.157-.223-.342-.215-.549-.031-.187.166-.376.36-.67.3C142.746,274.776,143.279,274.832,143.744,274.76Z" transform="translate(-125.435 -241.754)" fill="#f8f9fa"/>
        <path id="Path_61" data-name="Path 61" d="M208.362,276.882a1.982,1.982,0,0,1-.841.247l-1.081-.6a5.919,5.919,0,0,0,1.57-.579.96.96,0,0,1,.352-.023Z" transform="translate(-181.643 -242.777)" fill="#f8f9fa"/>
        <path id="Path_62" data-name="Path 62" d="M201.122,281l1.081.6c-.34.37-.748.259-1.146.147a6.691,6.691,0,0,1-.657-.267l.12-.368Z" transform="translate(-176.328 -247.244)" fill="#f8f9fa"/>
        <path id="Path_63" data-name="Path 63" d="M222.44,268.2v-.961a.808.808,0,0,1,.006-.12c.5-.178.925-.41.721-1.064.652.249.107.613.089.926C222.964,267.375,222.853,267.887,222.44,268.2Z" transform="translate(-195.721 -234.09)" fill="#f8f9fa"/>
        <path id="Path_64" data-name="Path 64" d="M186.37,283.913a4.677,4.677,0,0,1,1.494.135l-.53.578A1.2,1.2,0,0,1,186.37,283.913Z" transform="translate(-163.983 -249.797)" fill="#f8f9fa"/>
        <path id="Path_65" data-name="Path 65" d="M248.33,271.376c.177-.335.531-.5.762-.8s.388.179.574.323C249.326,271.341,248.8,271.287,248.33,271.376Z" transform="translate(-218.501 -237.98)" fill="#f8f9fa"/>
        <path id="Path_66" data-name="Path 66" d="M188.46,290.685c0-.249-.006-.5-.01-.745.16.065.258.24.453.24C188.892,290.471,188.691,290.592,188.46,290.685Z" transform="translate(-165.813 -255.11)" fill="#f8f9fa"/>
        <path id="Path_67" data-name="Path 67" d="M149.161,298.511h-.721c.2-.286.416-.495.721-.113Z" transform="translate(-130.609 -262.37)" fill="#f8f9fa"/>
        <path id="Path_68" data-name="Path 68" d="M311.375,236.16a.24.24,0,0,1,.12-.24.249.249,0,0,1-.12.24Z" transform="translate(-273.972 -207.579)" fill="#f8f9fa"/>
        <path id="Path_69" data-name="Path 69" d="M124.32,107.373l.841-2.543a.862.862,0,0,0,.533.36,2.894,2.894,0,0,1,1.695.8,1.968,1.968,0,0,0,2.238.429c-.271.913-.574,1.817-.8,2.741a1.47,1.47,0,0,1-.762,1.123,2.858,2.858,0,0,0-.921-.884,6.025,6.025,0,0,1-1.881-1.781C124.947,107.167,124.733,107.073,124.32,107.373Z" transform="translate(-109.386 -92.235)" fill="#f8f9fa"/>
        <path id="Path_70" data-name="Path 70" d="M117.29,124.715c.413-.3.627-.208.94.24a6.025,6.025,0,0,0,1.883,1.78,2.858,2.858,0,0,1,.921.884,5.122,5.122,0,0,1-1.575,1.217,14.609,14.609,0,0,0-3.123-2.431l-.007-.014A8.168,8.168,0,0,0,117.29,124.715Z" transform="translate(-102.356 -109.577)" fill="#f8f9fa"/>
        <path id="Path_71" data-name="Path 71" d="M157.534,62.064c0,.12-.006.24-.008.36-.347.088-.19.386-.24.591-.127.538-.429.652-.879.315-.24-.177-.46-.36-.689-.548a27.114,27.114,0,0,1,.017-3.232c.318-.042.225-.294.247-.48a1.628,1.628,0,0,1,1.407,2.3A.614.614,0,0,0,157.534,62.064Z" transform="translate(-136.949 -51.971)" fill="#f8f9fa"/>
        <path id="Path_72" data-name="Path 72" d="M159.728,36.425a.622.622,0,0,1-.145-.7,1.628,1.628,0,0,0-1.407-2.3c0-.208,0-.416-.008-.625-.154-.91.36-1.758.258-2.667-.012-.107.086-.168.187-.2l1.029,2.471c.084.2.207.341.45.3.038.2.076.4.12.6l-.113.24c0,.2,0,.4-.008.6a12.9,12.9,0,0,0-.232,1.73C159.818,36.064,159.908,36.271,159.728,36.425Z" transform="translate(-139.143 -26.331)" fill="#f8f9fa"/>
        <path id="Path_73" data-name="Path 73" d="M135.806,100.336a1.968,1.968,0,0,1-2.238-.429,2.9,2.9,0,0,0-1.695-.8c-.21,0-.387-.189-.533-.36a2.173,2.173,0,0,1,.252-.817c.291-.077.428.309.721.24a1.33,1.33,0,0,0,.721.687c.48.217,1,.36,1.494.547.961.368,1.19.216,1.272-.87.468.135.585.417.386.859C136.041,99.706,135.93,100.024,135.806,100.336Z" transform="translate(-115.563 -86.159)" fill="#f8f9fa"/>
        <path id="Path_74" data-name="Path 74" d="M163.57,11.645c-.24.037-.36-.1-.45-.3q-.514-1.236-1.029-2.471a23.652,23.652,0,0,1,.835-2.811c.007-.031.1-.041.16-.06a16.388,16.388,0,0,0,.24,2.763c0,.083.006.165.01.247a.162.162,0,0,0,0,.109c0,.234.006.467.01.7.013.263-.154.563.161.763Z" transform="translate(-142.62 -5.275)" fill="#f8f9fa"/>
        <path id="Path_75" data-name="Path 75" d="M134.121,86.082c-.288.072-.425-.313-.721-.24.085-.426.143-.861.263-1.278.088-.3.22-.529.641-.265a4.033,4.033,0,0,0,1.616.818.155.155,0,0,1,.018.08C135.329,85.482,134.575,85.473,134.121,86.082Z" transform="translate(-117.376 -74.067)" fill="#f8f9fa"/>
        <path id="Path_76" data-name="Path 76" d="M154.428,87.7a.155.155,0,0,0-.018-.08.217.217,0,0,1,.22-.241c.229.183.455.371.689.548.45.338.752.223.879-.315.049-.205-.108-.5.24-.591.092.571-.177,1.117-.112,1.682l-.36.12h0a.219.219,0,0,0-.24-.24C155.244,88.362,154.93,87.893,154.428,87.7Z" transform="translate(-135.861 -76.564)" fill="#f8f9fa"/>
        <path id="Path_77" data-name="Path 77" d="M156.51,53.8c0,.209,0,.417.008.625-.023.192.071.444-.247.48C156.355,54.545,156.066,54.092,156.51,53.8Z" transform="translate(-137.485 -47.334)" fill="#f8f9fa"/>
        <path id="Path_78" data-name="Path 78" d="M172.444,27.243c0-.234-.006-.467-.01-.7.013-.011.04-.026.037-.031a.489.489,0,0,0-.042-.078c0-.083-.007-.165-.01-.247a1.1,1.1,0,0,0,.507-.24c.24-.142.531-.289.7.12a1.39,1.39,0,0,0-.12,1.487c.08.261.286.509-.12.674h0a.221.221,0,0,0-.24-.24,1.348,1.348,0,0,1-.58-.721Z" transform="translate(-151.709 -22.695)" fill="#f8f9fa"/>
        <path id="Path_79" data-name="Path 79" d="M188.627,30.9c-.016-.36-.474-.559-.374-.969,1.153.437,1.691,1.058,1.682,1.94h-.227c.013-.33-.512-.159-.48-.5C189.283,30.873,188.958,30.885,188.627,30.9Z" transform="translate(-165.628 -26.331)" fill="#f8f9fa"/>
        <path id="Path_80" data-name="Path 80" d="M103.881,192.342a7.553,7.553,0,0,1-.247,2.162.882.882,0,0,1-1.194-.24v-.36c.471-.28.141-.731.24-1.092a1.366,1.366,0,0,1,.24-.954c.456-.108.6.392.952.486Z" transform="translate(-90.134 -168.796)" fill="#f8f9fa"/>
        <path id="Path_81" data-name="Path 81" d="M100.689,212a.88.88,0,0,0,1.194.24c0,.784-.02.811-.756.633-.225-.054-.49.054-.677-.157C100.522,212.47,100.763,212.285,100.689,212Z" transform="translate(-88.383 -186.532)" fill="#f8f9fa"/>
        <path id="Path_82" data-name="Path 82" d="M107.372,189.031c-.352-.095-.5-.6-.952-.486v-.465C107.407,188.267,107.518,188.378,107.372,189.031Z" transform="translate(-93.636 -165.485)" fill="#f8f9fa"/>
        <path id="Path_83" data-name="Path 83" d="M102.518,199.88c-.094.36.24.812-.24,1.092C102.374,200.615,102.06,200.162,102.518,199.88Z" transform="translate(-89.977 -175.868)" fill="#f8f9fa"/>
        <path id="Path_84" data-name="Path 84" d="M30.054,252.622a1.873,1.873,0,0,1-2.162.24.774.774,0,0,1-.352-.36.255.255,0,0,0,.12-.24,2.145,2.145,0,0,1,1.333-.347l-.369.24a1.081,1.081,0,0,0-.729.4,8.861,8.861,0,0,0,1.115.174A6.78,6.78,0,0,1,30.054,252.622Z" transform="translate(-24.231 -221.629)" fill="#f8f9fa"/>
        <path id="Path_85" data-name="Path 85" d="M10.838,265.838a.305.305,0,0,0-.221-.252.224.224,0,0,1-.1-.351c.082-.142.323-.282.39-.186.345.5.778.144,1.166.157.133,0,.274-.086.36.076a.2.2,0,0,1,0,.165.247.247,0,0,1-.36.12c-.316-.165-.428.05-.547.268Z" transform="translate(-9.215 -233.181)" fill="#f8f9fa"/>
        <path id="Path_86" data-name="Path 86" d="M60.48,268.995c.213-.214.48-.087.721-.12C60.988,269.092,60.721,268.962,60.48,268.995Z" transform="translate(-53.214 -236.569)" fill="#f8f9fa"/>
        <path id="Path_87" data-name="Path 87" d="M116.349,140.06a14.768,14.768,0,0,1,3.123,2.431c0,.071.008.142.012.213-.087.36.189.626.24.95a3.283,3.283,0,0,0,.136,1.2,19.707,19.707,0,0,0,.818,3.589c.2,1.17.143,2.467,1.594,2.975.151.053.251.25.376.38l-.522.022c-.1-.388-.426-.336-.707-.378-.45-.271-.8.183-1.22.166l-.589.217h-1.091a1.138,1.138,0,0,0,.068-1.212c-.332-.951-.615-1.912-.915-2.873h.114c.1.017.205.046.223.161a31.156,31.156,0,0,0,.98,3.213c.07.251.189.492.466.43.36-.08.267-.371.174-.626a1.052,1.052,0,0,1-.034-.175,1.253,1.253,0,0,1,.294.037c.44.157.6.091.443-.423a12.454,12.454,0,0,1-.531-2.237c-.108-1.081-.5-2.106-.572-3.19-.019-.314-.231-.674-.48-.5-.521.36-.793.195-1.1-.223-.052-.07-.222-.052-.338-.073-.209-.026-.219-.175-.24-.344a13.442,13.442,0,0,1-.5-3.024C116.592,140.533,116.276,140.346,116.349,140.06Zm2.763,2.867a1.06,1.06,0,0,0-.486-.883c-.292-.231-.559-.444-.858-.637-.216-.139-.34-.59-.626-.4-.233.155.162.471.12.7-.183,1.115.448,1.4,1.379,1.6.474.1.472-.019.472-.375Z" transform="translate(-102.363 -123.233)" fill="#f8f9fa"/>
        <path id="Path_88" data-name="Path 88" d="M124.411,174c.12.022.286,0,.338.073.306.418.578.586,1.1.223.253-.177.465.184.48.5.07,1.081.464,2.108.572,3.19a12.456,12.456,0,0,0,.531,2.237c.154.514,0,.58-.443.423a1.251,1.251,0,0,0-.294-.037,44.827,44.827,0,0,0-1.174-4.76c-.163-.5-.425-.6-.871-.4A2.507,2.507,0,0,1,124.411,174Z" transform="translate(-109.464 -153.096)" fill="#f8f9fa"/>
        <path id="Path_89" data-name="Path 89" d="M126.4,185.305c.446-.2.707-.094.871.4a44.1,44.1,0,0,1,1.174,4.76,1.057,1.057,0,0,0,.034.175c.092.255.186.545-.174.626-.277.062-.4-.179-.466-.43a31.254,31.254,0,0,1-.98-3.213c-.018-.12-.12-.144-.223-.161v-1.2c-.076-.24.191-.6-.24-.721Z" transform="translate(-111.208 -162.96)" fill="#f8f9fa"/>
        <path id="Path_90" data-name="Path 90" d="M126.412,188c.43.12.163.48.24.721C126.322,188.56,126.429,188.258,126.412,188Z" transform="translate(-111.224 -165.415)" fill="#f8f9fa"/>
        <path id="Path_91" data-name="Path 91" d="M81.892,217.93c.871.179,1.742.351,2.61.539a.638.638,0,0,1,.407.327c.231.392.491.765.728,1.153.274.447.19.578-.318.629a1.907,1.907,0,0,1-1.548-.461,5.862,5.862,0,0,0-1.942-1.081c-.2-.082-.5-.077-.559-.381C81.454,218.39,81.535,218.042,81.892,217.93Z" transform="translate(-71.507 -191.75)" fill="#f8f9fa"/>
        <path id="Path_92" data-name="Path 92" d="M53.835,225.84c.157.1.335.247.173.426-.317.36-.637.876-1.031.961-.895.181-1.606.792-2.5.918a1.075,1.075,0,0,1,.639-.949c.655-.4,1.334-.768,1.983-1.18A1.318,1.318,0,0,1,53.835,225.84Z" transform="translate(-44.413 -198.71)" fill="#f8f9fa"/>
        <path id="Path_93" data-name="Path 93" d="M36.52,246.873l.369-.24a1.491,1.491,0,0,0,1.184-.492,2.231,2.231,0,0,0,.841-.24c-.019.36.454.4.491.721a.751.751,0,0,1-.489.231c-.291-.192-.4-.013-.48.233h0a10.292,10.292,0,0,0-1.666.06C36.491,247.221,36.53,247.031,36.52,246.873Z" transform="translate(-32.132 -216.36)" fill="#f8f9fa"/>
        <path id="Path_94" data-name="Path 94" d="M258.27,209.511l.032-.24c.058-.12.12-.24.172-.36a1.164,1.164,0,0,1-.189,2.049Q258.278,210.242,258.27,209.511Z" transform="translate(-227.247 -183.813)" fill="#f8f9fa"/>
        <path id="Path_95" data-name="Path 95" d="M256.712,213.91q.01.721.016,1.452c0,.329.011.659-.017.987-.03.368.153.48.48.48-.416.329-.664.2-.685-.3A15.474,15.474,0,0,1,256.712,213.91Z" transform="translate(-225.689 -188.213)" fill="#f8f9fa"/>
        <path id="Path_96" data-name="Path 96" d="M219.547,115.514a.853.853,0,0,1-.148-.506c-.02-1.67-.2-3.337-.112-5.009.48,0,.471.458.565.713a20.08,20.08,0,0,0,1.561,3.141c.453.776.885,1.561,1.338,2.345a3.745,3.745,0,0,0,1.931,1.964.293.293,0,0,1,.265.144c.006.615-.513.871-.871,1.218-.2.193-.417-.047-.556-.193-.784-.819-1.547-1.659-2.329-2.482A5.1,5.1,0,0,0,219.547,115.514Z" transform="translate(-192.925 -96.784)" fill="#f8f9fa"/>
        <path id="Path_97" data-name="Path 97" d="M211.612,159.522a2.784,2.784,0,0,0,.354-.961c.187-.067.208-.279.341-.393.48-.285.656.225.961.384a.221.221,0,0,0,.24.24h0a.22.22,0,0,0,.251.24l.112.108c-.012.136.014.285-.126.377-.352-.35-.7-.12-1.059-.006-.205.065-.527-.12-.6.219a.919.919,0,0,0,.209.877,2.932,2.932,0,0,1,.721,1.441c.062.348.24.351.494.348.084.662-.33,1.189-.48,1.786a1.116,1.116,0,0,1-.739.841,3.912,3.912,0,0,1,.559-1.492,1.1,1.1,0,0,0-.537-1.619h0a1.646,1.646,0,0,0-.5-.787.868.868,0,0,1-.257-1.016A1.848,1.848,0,0,0,211.612,159.522Z" transform="translate(-186.076 -139.091)" fill="#f8f9fa"/>
        <path id="Path_98" data-name="Path 98" d="M236.916,196.185l-1.441.579c-.328-.318.042-.649-.014-.972-.133-.626.378-1.165.24-1.792.24.029.345.251.507.388.262.22.5.631.76-.035.082-.21.4-.161.586-.042a.763.763,0,0,0,.426.173l-.094.24c-.309.013-.24.253-.271.44-.047.24-.138.48-.45.393-.151-.044-.287-.3-.447-.12-.178.2.1.344.16.518A1.275,1.275,0,0,1,236.916,196.185Z" transform="translate(-207.069 -170.694)" fill="#f8f9fa"/>
        <path id="Path_99" data-name="Path 99" d="M238.92,180.323a.789.789,0,0,1-.426-.173c-.187-.12-.5-.168-.586.042-.258.665-.5.255-.76.035-.162-.137-.261-.36-.507-.388h0c0-.292.016-.585,0-.874-.013-.209.12-.5-.24-.565h0v-.48l.622-.01c.514.518,1.011,1.055,1.552,1.543A.866.866,0,0,1,238.92,180.323Z" transform="translate(-208.004 -156.537)" fill="#f8f9fa"/>
        <path id="Path_100" data-name="Path 100" d="M228.08,222.393c-.841-.231-1.674-.449-2.5-.7-.464-.138-.707.311-1.1.36v-.619h0c.559-.306,1.213-.52,1.244-1.327,0-.041.12-.077.19-.12.01.038.017.078.028.12.136.48.133,1.11.446,1.381.36.312.853-.24,1.321-.332s.542.111.446.47A4.052,4.052,0,0,0,228.08,222.393Z" transform="translate(-197.516 -193.562)" fill="#f8f9fa"/>
        <path id="Path_101" data-name="Path 101" d="M241.512,214.4a2.654,2.654,0,0,0-.082.829c.01.179-.074.223-.247.24a2.282,2.282,0,0,0-.5.172c-.93.334-.924.327-1.143-.629-.09-.4.011-.6.413-.683a11.746,11.746,0,0,0,1.143-.321C241.411,213.914,241.548,214.019,241.512,214.4Z" transform="translate(-210.737 -188.272)" fill="#f8f9fa"/>
        <path id="Path_102" data-name="Path 102" d="M267.5,242.581a.537.537,0,0,1-.412-.387c-.06-.419-.309-.24-.52-.216a4.193,4.193,0,0,1,.063-.591.509.509,0,0,0-.309-.589,5.125,5.125,0,0,0-.9-.277c-.189.673-.646.292-1.016.259v-.12a.616.616,0,0,1,.7-.48.635.635,0,0,0,.617-.24c.389.269.932.455,1.133.826A4.342,4.342,0,0,1,267.5,242.581Z" transform="translate(-232.65 -211.116)" fill="#f8f9fa"/>
        <path id="Path_103" data-name="Path 103" d="M256.023,238.939a.636.636,0,0,1-.617.24.613.613,0,0,0-.7.48.219.219,0,0,0-.24.24h0a2.616,2.616,0,0,0-1.081.721c-.02-.48.311-.855.366-1.312.492-.147.983-.306,1.48-.436C255.5,238.8,255.776,238.716,256.023,238.939Z" transform="translate(-222.947 -210.108)" fill="#f8f9fa"/>
        <path id="Path_104" data-name="Path 104" d="M225.874,210.33c-.066.038-.187.074-.19.12-.031.807-.686,1.021-1.244,1.327.287-.577.59-1.141.831-1.744.137-.341.2-.806.6-1.023.056.323-.313.653.014.972C225.885,210.09,225.88,210.21,225.874,210.33Z" transform="translate(-197.48 -183.901)" fill="#f8f9fa"/>
        <path id="Path_105" data-name="Path 105" d="M246.634,201.42a1.281,1.281,0,0,0-.034-.24c-.06-.174-.338-.32-.16-.518.16-.179.3.079.447.12.312.09.4-.154.45-.393.036-.186-.037-.426.271-.44,0,.156-.012.312-.014.468C247.578,201.349,247.573,201.357,246.634,201.42Z" transform="translate(-216.787 -175.929)" fill="#f8f9fa"/>
        <path id="Path_106" data-name="Path 106" d="M231.723,168.178l-.622.01c-.43-.178-.494-.628-.721-.961.141-.092.12-.24.126-.377A6.938,6.938,0,0,1,231.723,168.178Z" transform="translate(-202.707 -146.805)" fill="#f8f9fa"/>
        <path id="Path_107" data-name="Path 107" d="M215.835,156.325c-.133.114-.154.326-.341.393a.675.675,0,0,1,.346-.728C215.838,156.1,215.836,156.213,215.835,156.325Z" transform="translate(-189.603 -137.25)" fill="#f8f9fa"/>
        <path id="Path_108" data-name="Path 108" d="M276,235c.079.12.257.169.24.353C276.034,235.319,275.836,235.281,276,235Z" transform="translate(-242.795 -206.769)" fill="#f8f9fa"/>
        <path id="Path_109" data-name="Path 109" d="M226.683,162.24a.221.221,0,0,1-.24-.24.413.413,0,0,1,.24.24Z" transform="translate(-199.242 -142.538)" fill="#f8f9fa"/>
        <path id="Path_110" data-name="Path 110" d="M228.682,164.24a.22.22,0,0,1-.251-.24Z" transform="translate(-200.991 -144.297)" fill="#f8f9fa"/>
        <path id="Path_111" data-name="Path 111" d="M223.879,87.285c-.347-.44-.1-1.039-.4-1.492a7.686,7.686,0,0,0-1.034-1.625c.36.091.584-.328.945-.246.163.036.39-.066.47.154a4.494,4.494,0,0,0,2.064,2.249c-.221.24-.4,0-.59-.054a1.361,1.361,0,0,0-.667-.145,4.45,4.45,0,0,0,.455,1.058c.048.132.293.221.111.394-.12.12-.3.073-.456.02C224.474,87.5,224.222,87.26,223.879,87.285Z" transform="translate(-195.721 -73.829)" fill="#f8f9fa"/>
        <path id="Path_112" data-name="Path 112" d="M142.4,108.379c0-.071-.008-.142-.012-.213a5.121,5.121,0,0,0,1.575-1.217,1.461,1.461,0,0,0,.762-1.123c.228-.924.531-1.828.8-2.741.12-.312.24-.631.372-.937.2-.442.083-.721-.386-.859-.04-.041-.08-.08-.12-.12l.36-.12c.352.408,1.056.5,1.081,1.2-.076.079-.15.159-.226.24-.044-.2.071-.512-.232-.532-.228-.014-.234.277-.288.458q-.65,2.194-1.294,4.391a5.222,5.222,0,0,0,.36,1.8c.293,1.761.567,3.524.848,5.285h-.145a33.389,33.389,0,0,1-.824-4.444,3.783,3.783,0,0,0-.467-1.688c-.025-.209.09-.5-.131-.6-.258-.12-.394.183-.586.3C143.359,107.77,142.991,108.251,142.4,108.379Z" transform="translate(-125.286 -88.909)" fill="#f8f9fa"/>
        <path id="Path_113" data-name="Path 113" d="M183.534,146.12l-.1-.12Z" transform="translate(-161.396 -128.46)" fill="#f8f9fa"/>
        <path id="Path_114" data-name="Path 114" d="M184.55,150c-.043.066-.083.061-.12,0Z" transform="translate(-162.276 -131.979)" fill="#f8f9fa"/>
        <path id="Path_115" data-name="Path 115" d="M184.5,64.557a2.34,2.34,0,0,0,.008.24,1.562,1.562,0,0,1-1.087-.841V63.95C183.838,64.057,184.1,64.421,184.5,64.557Z" transform="translate(-161.388 -56.265)" fill="#f8f9fa"/>
        <path id="Path_116" data-name="Path 116" d="M174.42,58.24c.038-.082.076-.162.113-.24a2.551,2.551,0,0,1,.973.721v.006C175.049,58.769,174.833,58.287,174.42,58.24Z" transform="translate(-153.469 -51.03)" fill="#f8f9fa"/>
        <path id="Path_117" data-name="Path 117" d="M186.935,136.219c.306-.366.074-.752.023-1.121-.157-1.111-.344-2.219-.518-3.326a1.342,1.342,0,0,1,.559,1.453c-.111.315-.257.7.332.71.187,0,.3.08.305.283,0,.369.074.728.053,1.11-.02.36-.456.671-.159,1.113a2.166,2.166,0,0,0,.6-1.551,1.039,1.039,0,0,1,.071-.7,2.7,2.7,0,0,0,.12-2.459,3.631,3.631,0,0,1,.163-2.827c.12-.24.205-.48.035-.656-.189-.193-.339.106-.514.162a1.017,1.017,0,0,1,.205-.667c.256-.4.489-.562.739-.019.071.155.222.154.307.24.267.253.553.53.324.961-.043.085-.12.2-.09.269.45,1.111-.058,2.2-.052,3.3a1.159,1.159,0,0,0-.165.249q-.758,2.216-1.5,4.444c-.049.149-.018.335-.24.338s-.24-.166-.24-.333c0-.234-.035-.443-.313-.5C186.955,136.529,186.946,136.374,186.935,136.219Z" transform="translate(-164.045 -112.073)" fill="#f8f9fa"/>
        <path id="Path_118" data-name="Path 118" d="M187.836,134.326c.175-.056.326-.36.514-.162.171.177.09.422-.035.656a3.63,3.63,0,0,0-.163,2.827,2.706,2.706,0,0,1-.12,2.459,1.039,1.039,0,0,0-.071.7,2.128,2.128,0,0,1-.6,1.551c-.3-.442.138-.751.159-1.113.022-.382-.049-.741-.053-1.11,0-.2-.12-.28-.305-.283-.589-.011-.442-.4-.332-.71a1.336,1.336,0,0,0-.559-1.453,2.385,2.385,0,0,1,.721-2.282.371.371,0,0,0,.24-.348v-.007a.222.222,0,0,0,.228-.24,1.039,1.039,0,0,1,.012-.12.22.22,0,0,0,.229-.24Z" transform="translate(-163.879 -117.987)" fill="#f8f9fa"/>
        <path id="Path_119" data-name="Path 119" d="M190.82,174.144c.279.06.312.269.313.5,0,.167.018.335.24.333s.2-.189.24-.338q.739-2.223,1.5-4.444a1.159,1.159,0,0,1,.165-.249l.144.007a1.923,1.923,0,0,1-.053.589.867.867,0,0,0,.257,1.016,1.646,1.646,0,0,1,.5.787c-.253-.019-.339-.256-.5-.389-.2-.16-.4-.553-.555-.465-.2.113-.287.48-.38.746-.4,1.175-.792,2.355-1.183,3.534-.04.12-.209.268-.037.36.2.12.288-.1.335-.24a.592.592,0,0,1,.8-.417c.972.36,1.274-.217,1.5-.961a1.588,1.588,0,0,1,.1-.216c.252-.521.671-1.035-.007-1.561-.079-.061-.052-.261-.074-.4a1.1,1.1,0,0,1,.537,1.619,4.014,4.014,0,0,0-.559,1.492c-.189.181-.191.5-.455.625-.382.107-.513-.411-.907-.345a1.617,1.617,0,0,0-1.256,1.474c0,.179.017.36.026.538l-.026.12-.232-.24Z" transform="translate(-167.899 -149.533)" fill="#f8f9fa"/>
        <path id="Path_120" data-name="Path 120" d="M192.7,141.992a.371.371,0,0,1-.24.348v-.36Z" transform="translate(-169.342 -124.922)" fill="#f8f9fa"/>
        <path id="Path_121" data-name="Path 121" d="M196.722,136.992a.22.22,0,0,1-.229.24.21.21,0,0,1,.229-.24Z" transform="translate(-172.888 -120.532)" fill="#f8f9fa"/>
        <path id="Path_122" data-name="Path 122" d="M194.724,139.995a.222.222,0,0,1-.228.24.213.213,0,0,1,.228-.24Z" transform="translate(-171.132 -123.175)" fill="#f8f9fa"/>
        <path id="Path_123" data-name="Path 123" d="M165.634,153.485l.443,3.492c-.255-.12-.538-.326-.509.223,0,.12-.107.2-.215.258a2.357,2.357,0,0,0-.046-.595,6.6,6.6,0,0,1-.444-2.162,1,1,0,0,0-.064-.406,7.4,7.4,0,0,1-.375-1.936c-.084-.5-.277-.946-.375-1.561a1.452,1.452,0,0,0-.141.86c-.011.286.3.48.234.787a18.785,18.785,0,0,0,.006,2.252,1.063,1.063,0,0,0,.04.473,5.179,5.179,0,0,1,.432,2.282h-.227l-.973-3.6c-.281-1.763-.555-3.527-.848-5.285a5.511,5.511,0,0,1-.36-1.8c.41.3.24.812.419,1.2.094.2.141.48.416.417.227-.047.109-.3.129-.468.055-.471-.1-.961.157-1.441a1.741,1.741,0,0,0,1.413,1.864q.36,2.176.729,4.353a1.86,1.86,0,0,0,.12.334C165.614,153.175,165.623,153.33,165.634,153.485Z" transform="translate(-142.713 -128.873)" fill="#f8f9fa"/>
        <path id="Path_124" data-name="Path 124" d="M164.923,114.957a1.74,1.74,0,0,1-1.413-1.864c-.257.48-.1.974-.157,1.441-.019.165.1.422-.129.468-.275.058-.322-.217-.416-.417-.183-.384-.01-.892-.419-1.2q.646-2.2,1.294-4.391c.054-.18.06-.472.288-.458.3.02.187.336.232.532.21,1.624.408,3.25.641,4.872C164.893,114.284,164.909,114.618,164.923,114.957Z" transform="translate(-142.883 -95.495)" fill="#f8f9fa"/>
        <path id="Path_125" data-name="Path 125" d="M174.828,41.123a2.594,2.594,0,0,0-.973-.721c-.038-.2-.076-.4-.12-.6l-.043-1.059q-.02-.371-.042-.742a1.314,1.314,0,0,0,.58.721.219.219,0,0,0,.24.24h0a2.728,2.728,0,0,0,1.2,1.441c-.175.03-.211.078-.12.265.167.33.435.638.351,1.056C175.508,41.588,175.241,41.224,174.828,41.123Z" transform="translate(-152.791 -33.432)" fill="#f8f9fa"/>
        <path id="Path_126" data-name="Path 126" d="M190.828,37.973c.33-.012.656-.024.6.465-.036.345.489.173.48.5-.213.012-.411.376-.64.024C191.067,38.655,190.532,38.5,190.828,37.973Z" transform="translate(-167.829 -33.405)" fill="#f8f9fa"/>
        <path id="Path_127" data-name="Path 127" d="M152.337,182.76c-.12-.13-.225-.327-.376-.38-1.451-.508-1.4-1.8-1.594-2.975.1-1.364-.425-2.694-.24-4.065a.848.848,0,0,1,1.105.318,5.245,5.245,0,0,1,.561,1.576,6.04,6.04,0,0,0,.865,2.657l.592,2.3c0,.219,0,.436.008.655.012.251-.046.434-.346.426Z" transform="translate(-132.058 -154.197)" fill="#f8f9fa"/>
        <path id="Path_128" data-name="Path 128" d="M196.44,187.491l.025-.12c.561-.369,1.123-.734,1.682-1.106.208-.138.489-.225.456-.561.264-.126.267-.443.455-.625a1.116,1.116,0,0,0,.739-.841c.153-.6.567-1.124.48-1.786-.111-.459.221-.8.314-1.208s.313-.48.644-.232h0c0,.291-.011.583.007.872.013.208-.12.491.233.567h0c.137.627-.375,1.166-.24,1.792-.4.217-.467.682-.6,1.023-.24.6-.544,1.167-.831,1.744h0l-1.441,2.143h-.835c-.044-.5-.293-.758-.813-.709-.014-.153-.028-.305-.042-.458C196.66,187.784,196.763,187.537,196.44,187.491Z" transform="translate(-172.844 -159.141)" fill="#f8f9fa"/>
        <path id="Path_129" data-name="Path 129" d="M78.274,233.408a2.057,2.057,0,0,1-1.922,1.029c-.03-.55-.56-.7-.868-.992-.609-.569-.553-1.342-.774-2.019-.12-.36,1.129-1.193,1.509-1.073a5.712,5.712,0,0,1,1.829,1.1.657.657,0,0,1,.232.583C78.271,232.492,78.277,232.95,78.274,233.408Z" transform="translate(-65.728 -202.671)" fill="#f8f9fa"/>
        <path id="Path_130" data-name="Path 130" d="M188.509,254.675a.809.809,0,0,1-.006.12.961.961,0,0,0-.352.023,5.919,5.919,0,0,1-1.57.578l-.6.12c-.133-.018-.3.014-.344-.168-.1-.4-.448-.48-.764-.544-.94-.184-1.2-.7-.848-1.612a5.38,5.38,0,0,1,.628-1.291h.6c.034.226.074.446.36.491a2.381,2.381,0,0,0,.223,1.384c.089.132,0,.506.13.446.342-.162.9.017,1.013-.3.133-.36.417-.732.317-1.171a1.234,1.234,0,0,0,1.434.36l.27.466C188.874,253.954,188.384,254.17,188.509,254.675Z" transform="translate(-161.787 -221.64)" fill="#f8f9fa"/>
        <path id="Path_131" data-name="Path 131" d="M121.983,238h.71c-.04.86.311,1.673.3,2.534,0,.217.011.346-.24.346a6.025,6.025,0,0,1-2.364-.817c-.175-.076-.068-.369-.079-.563a2.623,2.623,0,0,1,.255-1.034c.162-.449.586-.171.888-.226A1.957,1.957,0,0,0,121.983,238Z" transform="translate(-105.834 -209.409)" fill="#f8f9fa"/>
        <path id="Path_132" data-name="Path 132" d="M146.622,248.033a4.263,4.263,0,0,1-1.441.231c-.4.006-.573-.181-.6-.565-.024-.333-.074-.663-.12-.995.257-.24.456-.578.884-.561.019,0,.042-.1.064-.154,1.111.12,1.2.214,1.2,1.276C146.617,247.517,146.621,247.772,146.622,248.033Z" transform="translate(-127.107 -216.439)" fill="#f8f9fa"/>
        <path id="Path_133" data-name="Path 133" d="M152.929,174.064a5.979,5.979,0,0,1-.865-2.657,5.117,5.117,0,0,0-.561-1.576.848.848,0,0,0-1.105-.318l-.008-.008v-.721h0c.277.154.623-.419.812,0,.262.589.519.468.86.12a33,33,0,0,0,.824,4.444C152.9,173.6,152.916,173.828,152.929,174.064Z" transform="translate(-132.325 -148.369)" fill="#f8f9fa"/>
        <path id="Path_134" data-name="Path 134" d="M200.088,252.938c.1.44-.184.807-.317,1.171-.12.317-.67.138-1.013.3-.126.06-.041-.313-.13-.446a2.381,2.381,0,0,1-.223-1.384.519.519,0,0,0,.486-.46h.467c.017.279-.091.646.444.473C200.036,252.522,200.092,252.74,200.088,252.938Z" transform="translate(-174.571 -221.833)" fill="#f8f9fa"/>
        <path id="Path_135" data-name="Path 135" d="M182.415,233.2c.323.052.22.3.226.5-.4.066-.22.376-.214.574.011.353-.092.5-.47.506-1.016.025-1.016.042-1.349-.934-.044-.132-.073-.269-.108-.4h.227c.037.1.15.3.191.12.12-.533.36-.092.54-.12.108-.058.221-.138.215-.258-.029-.549.255-.344.509-.223Zm-.549.579a.165.165,0,0,0-.192-.09c-.074.01-.175.017-.149.129.02.089.109.1.189.091s.168-.022.153-.136Z" transform="translate(-158.818 -204.852)" fill="#f8f9fa"/>
        <path id="Path_136" data-name="Path 136" d="M166.743,242.027a.24.24,0,0,1-.213-.24V239.3a6.3,6.3,0,0,1,1.646,1.9c.256.6,0,.817-.927.831a3.609,3.609,0,0,0-.341-1.859h-.165Z" transform="translate(-146.526 -210.553)" fill="#f8f9fa"/>
        <path id="Path_137" data-name="Path 137" d="M107.425,244.4l-.464-.012c-.04-.231-.257-.3-.407-.414-.443-.344-.086-.736-.082-1.1,0-.341.287-.255.492-.275,1.011-.1,1.009-.1.71.888C107.584,243.789,107.508,244.1,107.425,244.4Z" transform="translate(-93.559 -213.419)" fill="#f8f9fa"/>
        <path id="Path_138" data-name="Path 138" d="M56.927,241.689c-.037-.327-.51-.36-.491-.721a3.584,3.584,0,0,1,1.643-.665c.432-.138.253.429.432.634s.042.4-.19.448A4.676,4.676,0,0,1,56.927,241.689Z" transform="translate(-49.655 -211.417)" fill="#f8f9fa"/>
        <path id="Path_139" data-name="Path 139" d="M168.376,264.516c-.018-.226.034-.36.3-.41,1.081-.2,1.081-.208,1.02.862-.011.209.095.5-.131.6s-.393-.141-.543-.281C168.78,265.058,168.338,264.981,168.376,264.516Z" transform="translate(-148.148 -232.289)" fill="#f8f9fa"/>
        <path id="Path_140" data-name="Path 140" d="M207.089,252.746c0-.2-.047-.416-.285-.339-.536.173-.428-.195-.444-.473.492-.12.961.138,1.45.088l.713,1.081A1.229,1.229,0,0,1,207.089,252.746Z" transform="translate(-181.572 -221.641)" fill="#f8f9fa"/>
        <path id="Path_141" data-name="Path 141" d="M144.136,237.395c-.022.053-.044.155-.064.154-.428-.017-.627.317-.884.561.041-.563-.329-1.1-.12-1.671l.589-.219c-.041.465.437.6.6.928A.267.267,0,0,0,144.136,237.395Z" transform="translate(-125.826 -207.843)" fill="#f8f9fa"/>
        <path id="Path_142" data-name="Path 142" d="M152.426,244.179a.267.267,0,0,1,.12-.24,2.946,2.946,0,0,0,1.081,0l.165-.008a10.232,10.232,0,0,1,.079,2.073c.006.144-.106.2-.24.219v-.768C153.626,244.386,153.537,244.29,152.426,244.179Z" transform="translate(-134.116 -214.627)" fill="#f8f9fa"/>
        <path id="Path_143" data-name="Path 143" d="M212.39,234.113l1.441-2.143v.619c-.595.387-.614,1.035-.743,1.634Z" transform="translate(-186.878 -204.103)" fill="#f8f9fa"/>
        <path id="Path_144" data-name="Path 144" d="M173.61,234.081c.3.007.36-.175.346-.426-.011-.219-.006-.436-.008-.655.24.721.491,1.432.787,2.293a3.641,3.641,0,0,1-1.124-1.212Z" transform="translate(-152.756 -205.01)" fill="#f8f9fa"/>
        <path id="Path_145" data-name="Path 145" d="M168.3,248.4V246.54h.165a3.609,3.609,0,0,1,.341,1.857Z" transform="translate(-148.084 -216.923)" fill="#f8f9fa"/>
        <path id="Path_146" data-name="Path 146" d="M31.109,254c.01.155-.029.345.24.285a10.57,10.57,0,0,1,1.666-.06l-.36.24h-.12a7.764,7.764,0,0,0-1.05.1,8.767,8.767,0,0,1-1.115-.174A1.081,1.081,0,0,1,31.109,254Z" transform="translate(-26.721 -223.487)" fill="#f8f9fa"/>
        <path id="Path_147" data-name="Path 147" d="M156.64,235.891l-.165.008c.078-.37-.138-.474-.447-.538-.136-.029-.352-.031-.36-.24s.169-.286.353-.321c.281.042.611-.01.707.378C156.555,235.4,156.636,235.649,156.64,235.891Z" transform="translate(-136.969 -206.594)" fill="#f8f9fa"/>
        <path id="Path_148" data-name="Path 148" d="M198.67,243.847c.52-.049.769.213.813.709C198.9,244.674,198.681,244.38,198.67,243.847Z" transform="translate(-174.806 -214.549)" fill="#f8f9fa"/>
        <path id="Path_149" data-name="Path 149" d="M180.753,274.93c.633.071.24.561.346.849C180.357,275.752,180.771,275.253,180.753,274.93Z" transform="translate(-158.954 -241.903)" fill="#f8f9fa"/>
        <path id="Path_150" data-name="Path 150" d="M196.267,251.891a.519.519,0,0,1-.486.46c-.282-.046-.323-.265-.36-.491Z" transform="translate(-171.946 -221.604)" fill="#f8f9fa"/>
        <path id="Path_151" data-name="Path 151" d="M52.42,253.588c.082-.24.195-.425.48-.233A.623.623,0,0,1,52.42,253.588Z" transform="translate(-46.122 -222.849)" fill="#f8f9fa"/>
        <path id="Path_152" data-name="Path 152" d="M184.35,281.983a.211.211,0,0,1,.24.24A.24.24,0,0,1,184.35,281.983Z" transform="translate(-162.206 -248.107)" fill="#f8f9fa"/>
        <path id="Path_153" data-name="Path 153" d="M223.874,237c.67.149,1.314.264,1.939.447.207.061.591.055.554.424a.839.839,0,0,1-.5.816,3.5,3.5,0,0,0-1.049.663c-.24.193-.424.406-.261.766a1.4,1.4,0,0,1,.031.531c0,.246.006.53-.328.529-.452,0-.143-.319-.145-.48a.758.758,0,0,0-.387-.631,1.138,1.138,0,0,0-.223-.076,4.708,4.708,0,0,1-.8-1.728C222.822,237.653,223.467,236.982,223.874,237Z" transform="translate(-195.946 -208.527)" fill="#f8f9fa"/>
        <path id="Path_154" data-name="Path 154" d="M254.59,245.039c.37.032.828.413,1.016-.259a5.036,5.036,0,0,1,.9.277.509.509,0,0,1,.309.589,4.193,4.193,0,0,0-.062.591c-.129.137-.286.259-.24.48-.382.219-.819.339-1,.841-.142.4-.552.24-.841.217a3.563,3.563,0,0,0-.824-.086.928.928,0,0,1-.6-.595,3.019,3.019,0,0,1,1.35-.736,1.05,1.05,0,0,1-.189.668.339.339,0,0,0,.061.48c.145.1.288.007.435-.077a2.944,2.944,0,0,0,1.152-1.463c.168-.369.028-.459-.319-.453s-.514.271-.7.49c-.127.147-.191.354-.435.352a1.682,1.682,0,0,1-.24-1.2h0A.253.253,0,0,0,254.59,245.039Z" transform="translate(-222.83 -215.375)" fill="#f8f9fa"/>
        <path id="Path_155" data-name="Path 155" d="M252.892,248a1.69,1.69,0,0,0,.24,1.2h0a3.018,3.018,0,0,0-1.35.736c-.407-.416-.042-.812.03-1.216A2.616,2.616,0,0,1,252.892,248Z" transform="translate(-221.372 -218.208)" fill="#f8f9fa"/>
        <path id="Path_156" data-name="Path 156" d="M222.32,266.967c-.12-.5.36-.721.5-1.1l.217.032C223.245,266.551,222.822,266.783,222.32,266.967Z" transform="translate(-195.598 -233.932)" fill="#f8f9fa"/>
        <path id="Path_157" data-name="Path 157" d="M142.737,93.755c.041.041.082.08.12.12-.082,1.081-.309,1.237-1.272.87-.5-.189-1.011-.329-1.494-.547a1.33,1.33,0,0,1-.721-.687c.454-.611,1.208-.6,1.822-.882.5.193.816.662,1.3.883a.24.24,0,0,0,.24.24Z" transform="translate(-122.629 -81.5)" fill="#f8f9fa"/>
        <path id="Path_158" data-name="Path 158" d="M172.5,37.85q.022.371.042.742c-.315-.2-.148-.5-.161-.763Z" transform="translate(-151.646 -33.282)" fill="#f8f9fa"/>
        <path id="Path_159" data-name="Path 159" d="M172.447,31.08a.489.489,0,0,1,.042.078l-.037.031A.162.162,0,0,1,172.447,31.08Z" transform="translate(-151.726 -27.343)" fill="#f8f9fa"/>
        <path id="Path_160" data-name="Path 160" d="M165.64,100.231a.24.24,0,0,1-.24-.24.219.219,0,0,1,.24.24Z" transform="translate(-145.532 -87.976)" fill="#f8f9fa"/>
        <path id="Path_161" data-name="Path 161" d="M178.661,44.233a.219.219,0,0,1-.24-.24.221.221,0,0,1,.24.24Z" transform="translate(-156.988 -38.704)" fill="#f8f9fa"/>
        <path id="Path_162" data-name="Path 162" d="M142.368,152.919c.589-.133.961-.615,1.441-.917.192-.12.328-.428.586-.3.221.106.106.4.131.6v1.26c-.859-.319-1.123-.24-1.2.305h-.712C142.556,153.545,142.281,153.277,142.368,152.919Z" transform="translate(-125.252 -133.449)" fill="#f8f9fa"/>
        <path id="Path_163" data-name="Path 163" d="M124.477,149.538c0,.36,0,.474-.466.375-.931-.2-1.561-.48-1.379-1.6.037-.225-.36-.54-.12-.7.286-.191.41.259.626.4.3.192.578.416.858.637A1.072,1.072,0,0,1,124.477,149.538Z" transform="translate(-107.727 -129.844)" fill="#f8f9fa"/>
        <path id="Path_164" data-name="Path 164" d="M146.228,175.965c-.19,1.371.333,2.7.24,4.065a19.76,19.76,0,0,1-.818-3.589c.416.106.247-.48.574-.48Z" transform="translate(-128.154 -154.821)" fill="#f8f9fa"/>
        <path id="Path_165" data-name="Path 165" d="M149.57,234.165c-.184.035-.366.094-.353.321s.228.211.36.24c.309.064.525.168.447.538a3.365,3.365,0,0,1-1.081,0c-.162-.333-.64-.464-.6-.928C148.767,234.348,149.12,233.894,149.57,234.165Z" transform="translate(-130.522 -205.959)" fill="#f8f9fa"/>
        <path id="Path_166" data-name="Path 166" d="M145.054,170.651c-.327,0-.159.59-.574.48a3.272,3.272,0,0,1-.136-1.2h.712C145.055,170.179,145.054,170.412,145.054,170.651Z" transform="translate(-126.989 -149.515)" fill="#f8f9fa"/>
        <path id="Path_167" data-name="Path 167" d="M218.681,170.1c-.33-.246-.553-.169-.644.232s-.424.749-.314,1.208c-.247,0-.431,0-.494-.348a2.932,2.932,0,0,0-.721-1.441.919.919,0,0,1-.209-.877c.071-.339.393-.154.6-.219.36-.112.707-.344,1.059.006.223.333.287.783.721.961Z" transform="translate(-190.287 -148.237)" fill="#f8f9fa"/>
        <path id="Path_168" data-name="Path 168" d="M236.588,183.459c-.349-.076-.22-.36-.233-.567-.018-.289,0-.581-.007-.872.36.068.225.36.24.565C236.6,182.872,236.589,183.165,236.588,183.459Z" transform="translate(-207.953 -160.153)" fill="#f8f9fa"/>
        <path id="Path_169" data-name="Path 169" d="M262.641,246.051a.253.253,0,0,1-.24.12.219.219,0,0,1,.24-.24C262.64,245.972,262.641,246.012,262.641,246.051Z" transform="translate(-230.881 -216.387)" fill="#f8f9fa"/>
        <path id="Path_170" data-name="Path 170" d="M150.41,158.5c.082-.546.346-.625,1.2-.305V156.94a3.737,3.737,0,0,1,.467,1.688c-.341.347-.6.467-.86-.12C151.033,158.082,150.687,158.655,150.41,158.5Z" transform="translate(-132.342 -138.086)" fill="#f8f9fa"/>
        <path id="Path_171" data-name="Path 171" d="M198.416,183.7c.023.136,0,.335.074.4.679.53.259,1.044.007,1.561a1.586,1.586,0,0,0-.1.216c-.226.747-.529,1.328-1.5.961a.59.59,0,0,0-.8.417c-.047.137-.132.351-.335.24-.172-.1,0-.24.037-.36.392-1.178.781-2.359,1.183-3.534.092-.27.177-.633.38-.746.156-.088.36.305.555.465.165.133.25.37.5.389Z" transform="translate(-172.18 -160.87)" fill="#f8f9fa"/>
        <path id="Path_172" data-name="Path 172" d="M198.6,218.482c.032.336-.249.423-.456.561-.559.372-1.121.737-1.682,1.106-.008-.18-.02-.36-.025-.538a1.617,1.617,0,0,1,1.256-1.474C198.088,218.071,198.219,218.589,198.6,218.482Z" transform="translate(-172.841 -191.927)" fill="#f8f9fa"/>
        <path id="Path_173" data-name="Path 173" d="M177.861,189.254c-.177.022-.423-.419-.541.12-.041.181-.154-.016-.191-.12a5.179,5.179,0,0,0-.432-2.282,1.063,1.063,0,0,1-.04-.473,18.788,18.788,0,0,1-.006-2.252c.068-.307-.24-.5-.234-.787a1.453,1.453,0,0,1,.141-.86c.1.611.291,1.056.375,1.561a7.4,7.4,0,0,0,.375,1.936,1,1,0,0,1,.064.406,6.551,6.551,0,0,0,.444,2.162A2.244,2.244,0,0,1,177.861,189.254Z" transform="translate(-155.22 -160.663)" fill="#f8f9fa"/>
        <path id="Path_174" data-name="Path 174" d="M189.341,240.07c.01.114-.079.12-.154.13s-.168,0-.189-.091c-.026-.112.074-.12.149-.129A.167.167,0,0,1,189.341,240.07Z" transform="translate(-166.292 -211.146)" fill="#f8f9fa"/>
        <path id="Path_175" data-name="Path 175" d="M262.525,251.767c.24,0,.307-.205.435-.352.19-.219.353-.48.7-.49s.488.084.32.453a2.944,2.944,0,0,1-1.152,1.463c-.147.084-.289.177-.435.077a.344.344,0,0,1-.061-.48,1.05,1.05,0,0,0,.189-.668Z" transform="translate(-230.764 -220.781)" fill="#f8f9fa"/>
      </g>
    </g>
  </g>
</svg>
