<svg xmlns="http://www.w3.org/2000/svg" width="62.437" height="62.438" viewBox="0 0 62.437 62.438">
  <path id="loyalty-icon" d="M63.6,32.908,35.5,4.811A6.2,6.2,0,0,0,31.1,3H9.244A6.262,6.262,0,0,0,3,9.244V31.1A6.23,6.23,0,0,0,4.842,35.53l28.1,28.1a6.2,6.2,0,0,0,4.4,1.811,6.1,6.1,0,0,0,4.4-1.842L63.6,41.742a6.1,6.1,0,0,0,1.842-4.4A6.306,6.306,0,0,0,63.6,32.908Zm-49.669-14.3a4.683,4.683,0,1,1,4.683-4.683A4.677,4.677,0,0,1,13.927,18.609ZM50.671,44.427l-13.33,13.33L24.01,44.427A7.815,7.815,0,0,1,29.536,31.1a7.709,7.709,0,0,1,5.526,2.31l2.279,2.248,2.279-2.279A7.815,7.815,0,0,1,50.671,44.427Z" transform="translate(-3 -3)" fill="#2f0042"/>
</svg>
