<svg xmlns="http://www.w3.org/2000/svg" width="59.621" height="55.035" viewBox="0 0 59.621 55.035">
  <path id="passion-icon" d="M46.6,4.5a17.635,17.635,0,0,0-13.415,6.292A17.635,17.635,0,0,0,19.771,4.5,16.209,16.209,0,0,0,3.375,21c0,11.394,10.133,20.538,25.482,34.641l4.328,3.9,4.328-3.9C52.864,41.534,63,32.39,63,21A16.209,16.209,0,0,0,46.6,4.5ZM35.02,51.7l-.6.559-1.233,1.118-1.233-1.118-.6-.559C24.128,45.06,17.879,39.327,13.766,34.21,9.753,29.237,7.976,25.167,7.976,21a11.921,11.921,0,0,1,3.4-8.5,11.664,11.664,0,0,1,8.4-3.411,13.144,13.144,0,0,1,9.9,4.658l3.511,4.171L36.7,13.744a13.1,13.1,0,0,1,9.9-4.658A11.721,11.721,0,0,1,55.013,12.5a11.945,11.945,0,0,1,3.4,8.5c0,4.156-1.792,8.241-5.79,13.214C48.492,39.327,42.258,45.06,35.02,51.7Z" transform="translate(-3.375 -4.5)" fill="#2f0042"/>
</svg>
