<svg xmlns="http://www.w3.org/2000/svg" width="62.708" height="62.708" viewBox="0 0 62.708 62.708">
  <path id="transparency-icon" d="M27.188.033a27.188,27.188,0,0,0,0,54.377,26.873,26.873,0,0,0,12.9-3.185,7.768,7.768,0,0,0,1.01,1.01L48.862,60A7.924,7.924,0,1,0,60.048,48.817L52.28,41.048a7.768,7.768,0,0,0-1.243-1.01,26.823,26.823,0,0,0,3.418-12.9A27.218,27.218,0,0,0,27.266-.045Zm0,7.768a19.329,19.329,0,0,1,19.42,19.42,19.479,19.479,0,0,1-5.127,13.361l-.233.233a7.768,7.768,0,0,0-1.01,1.01,19.438,19.438,0,0,1-13.128,4.894,19.42,19.42,0,0,1,0-38.841Z" transform="translate(0 0.045)" fill="#2f0042"/>
</svg>
