<svg xmlns="http://www.w3.org/2000/svg" width="28.673" height="23.332" viewBox="0 0 28.673 23.332">
  <path id="twitter-icon" d="M30.086,7.265a11.893,11.893,0,0,1-3.378.93A5.9,5.9,0,0,0,29.3,4.937,11.689,11.689,0,0,1,25.56,6.365a5.881,5.881,0,0,0-10.177,4.022,5.759,5.759,0,0,0,.152,1.343A16.671,16.671,0,0,1,3.406,5.575a5.894,5.894,0,0,0,1.829,7.862A5.746,5.746,0,0,1,2.562,12.7v.073a5.888,5.888,0,0,0,4.721,5.772,5.922,5.922,0,0,1-1.549.207,5.55,5.55,0,0,1-1.106-.109,5.892,5.892,0,0,0,5.5,4.089,11.794,11.794,0,0,1-7.31,2.522,11.925,11.925,0,0,1-1.4-.085,16.443,16.443,0,0,0,9,2.661c10.834,0,16.752-8.974,16.752-16.758,0-.255-.006-.51-.018-.76A11.975,11.975,0,0,0,30.086,7.265Z" transform="translate(-1.413 -4.5)" fill="#fff"/>
</svg>
